# xmcd CD database file
#
# Track frame offsets:
#	150
#	5902
#	30547
#	51040
#	69795
#	84105
#	109060
#	122435
#	144540
#	158015
#	179777
#	195135
#
# Disc length: 2926 seconds
#
# Revision: 0
# Processed by: cddbd v1.5.1PL0 Copyright (c) Steve Scherf et al.
# Submitted via: CDex 1.51
#
DISCID=8f0b6c0c
DTITLE=organs cafe - 樹
DYEAR=2004
DGENRE=JPop
TTITLE0=樹
TTITLE1=つぼみ
TTITLE2=おしろいばな
TTITLE3=迷い女
TTITLE4=棘のワルツ
TTITLE5=咲けない花
TTITLE6=檸檬粋婦
TTITLE7=magic
TTITLE8=濡れる葉音
TTITLE9=はじまり
TTITLE10=〜a four leaf clover〜
TTITLE11=つぼみ 〜cafe style〜
EXTD=YEAR: 2004
EXTT0=
EXTT1=
EXTT2=
EXTT3=
EXTT4=
EXTT5=
EXTT6=
EXTT7=
EXTT8=
EXTT9=
EXTT10=
EXTT11=
PLAYORDER=
